<svg xmlns="http://www.w3.org/2000/svg" width="520" height="400" viewBox="0 0 520 400" fill="none" role="img" aria-labelledby="t2">
  <title id="t2">Member profiles preview</title>
  <rect width="520" height="400" rx="14" fill="#1e1b4b"/>
  <rect x="32" y="40" width="456" height="96" rx="12" fill="#312e81" stroke="#6366f1" stroke-width="1" opacity="0.9"/>
  <circle cx="76" cy="88" r="28" fill="#22d3ee" opacity="0.45"/>
  <rect x="120" y="64" width="160" height="12" rx="4" fill="#e0e7ff"/>
  <rect x="120" y="88" width="220" height="8" rx="3" fill="#a5b4fc" opacity="0.8"/>
  <rect x="120" y="104" width="180" height="8" rx="3" fill="#818cf8" opacity="0.6"/>
  <rect x="32" y="160" width="220" height="200" rx="12" fill="#0f172a" stroke="#4f46e5" stroke-width="1"/>
  <rect x="52" y="188" width="100" height="10" rx="3" fill="#22d3ee"/>
  <rect x="52" y="210" width="168" height="7" rx="2" fill="#64748b"/>
  <rect x="52" y="228" width="148" height="7" rx="2" fill="#475569"/>
  <rect x="52" y="260" width="180" height="36" rx="6" fill="#1e293b" stroke="#334155"/>
  <rect x="268" y="160" width="220" height="92" rx="12" fill="#0f172a" stroke="#4f46e5" stroke-width="1"/>
  <rect x="288" y="184" width="80" height="8" rx="3" fill="#22d3ee" opacity="0.7"/>
  <rect x="288" y="204" width="160" height="6" rx="2" fill="#64748b"/>
  <rect x="268" y="268" width="220" height="92" rx="12" fill="#0f172a" stroke="#4f46e5" stroke-width="1"/>
  <rect x="288" y="292" width="100" height="8" rx="3" fill="#a5b4fc"/>
  <rect x="288" y="312" width="140" height="6" rx="2" fill="#64748b"/>
</svg>
