<svg xmlns="http://www.w3.org/2000/svg" width="520" height="400" viewBox="0 0 520 400" fill="none" role="img" aria-labelledby="t3">
  <title id="t3">Discover members preview</title>
  <rect width="520" height="400" rx="14" fill="#134e4a"/>
  <rect x="36" y="36" width="448" height="48" rx="10" fill="#0f172a" stroke="#2dd4bf" stroke-width="1"/>
  <circle cx="64" cy="60" r="10" fill="#22d3ee" opacity="0.5"/>
  <rect x="88" y="52" width="280" height="10" rx="4" fill="#5eead4" opacity="0.35"/>
  <rect x="36" y="104" width="140" height="36" rx="8" fill="#115e59" stroke="#2dd4bf"/>
  <rect x="188" y="104" width="120" height="36" rx="8" fill="#0f766e" stroke="#5eead4" opacity="0.5"/>
  <rect x="320" y="104" width="100" height="36" rx="8" fill="#115e59" stroke="#2dd4bf" opacity="0.7"/>
  <rect x="36" y="160" width="448" height="64" rx="10" fill="#0f172a" stroke="#334155"/>
  <rect x="56" y="180" width="48" height="10" rx="3" fill="#22d3ee"/>
  <rect x="120" y="180" width="200" height="8" rx="3" fill="#94a3b8"/>
  <rect x="120" y="198" width="160" height="7" rx="2" fill="#64748b"/>
  <rect x="36" y="240" width="448" height="64" rx="10" fill="#0f172a" stroke="#334155"/>
  <rect x="56" y="260" width="48" height="10" rx="3" fill="#2dd4bf"/>
  <rect x="120" y="260" width="180" height="8" rx="3" fill="#94a3b8"/>
  <rect x="120" y="278" width="220" height="7" rx="2" fill="#64748b"/>
  <rect x="36" y="320" width="448" height="44" rx="10" fill="#042f2e" stroke="#2dd4bf" opacity="0.6"/>
  <rect x="56" y="336" width="120" height="10" rx="4" fill="#22d3ee" opacity="0.8"/>
</svg>
