<svg xmlns="http://www.w3.org/2000/svg" width="560" height="420" viewBox="0 0 560 420" fill="none" role="img" aria-labelledby="t1">
  <title id="t1">Aspire Entrepreneur dashboard preview</title>
  <rect width="560" height="420" rx="16" fill="#0f172a"/>
  <rect x="24" y="24" width="160" height="372" rx="10" fill="#1e293b" stroke="#334155" stroke-width="1"/>
  <rect x="40" y="48" width="128" height="10" rx="4" fill="#22d3ee" opacity="0.35"/>
  <rect x="40" y="72" width="96" height="8" rx="3" fill="#64748b"/>
  <rect x="40" y="96" width="112" height="8" rx="3" fill="#475569"/>
  <rect x="40" y="120" width="104" height="8" rx="3" fill="#475569"/>
  <rect x="200" y="24" width="336" height="120" rx="10" fill="#1e293b" stroke="#334155" stroke-width="1"/>
  <rect x="220" y="44" width="180" height="12" rx="4" fill="#f8fafc" opacity="0.9"/>
  <rect x="220" y="68" width="280" height="8" rx="3" fill="#64748b"/>
  <rect x="220" y="88" width="240" height="8" rx="3" fill="#475569"/>
  <rect x="200" y="160" width="336" height="236" rx="10" fill="#1e293b" stroke="#334155" stroke-width="1"/>
  <rect x="220" y="188" width="120" height="10" rx="4" fill="#22d3ee"/>
  <rect x="220" y="212" width="296" height="8" rx="3" fill="#64748b"/>
  <rect x="220" y="232" width="260" height="8" rx="3" fill="#475569"/>
  <rect x="220" y="252" width="200" height="8" rx="3" fill="#475569"/>
  <rect x="220" y="288" width="296" height="72" rx="8" fill="#0b1220" stroke="#334155"/>
  <circle cx="248" cy="324" r="16" fill="#22d3ee" opacity="0.5"/>
  <rect x="276" y="308" width="140" height="10" rx="3" fill="#94a3b8"/>
  <rect x="276" y="326" width="200" height="8" rx="3" fill="#64748b"/>
</svg>
